<svg width="673" height="504" viewBox="0 0 673 504" fill="none" xmlns="http://www.w3.org/2000/svg">
<path d="M2 500H62L204 369" stroke="white"/>
<path d="M418 478H485L378 360" stroke="white"/>
<path d="M610.5 463H548L441 345" stroke="white"/>
<path d="M610.5 384H548L441 266" stroke="white"/>
<path d="M2 366H62L201 320.5" stroke="white"/>
<path d="M2 219.5H62L201 266.5" stroke="white"/>
<path d="M2 76H62L228.5 202" stroke="white"/>
<path d="M668.5 57H608.5L476 156" stroke="white"/>
<path d="M668.5 238H608.5L515 271" stroke="white"/>
<circle cx="62" cy="500" r="1" fill="white"/>
<circle cx="62" cy="500" r="2.5" stroke="white"/>
<circle cx="204" cy="369" r="1" fill="white"/>
<circle cx="204" cy="369" r="2.5" stroke="white"/>
<circle cx="4" cy="500" r="1" fill="white"/>
<circle cx="4" cy="500" r="2.5" stroke="white"/>
<circle cx="485" cy="478" r="1" fill="white"/>
<circle cx="485" cy="478" r="2.5" stroke="white"/>
<circle cx="378" cy="360" r="1" fill="white"/>
<circle cx="378" cy="360" r="2.5" stroke="white"/>
<circle cx="440" cy="345" r="1" fill="white"/>
<circle cx="440" cy="345" r="2.5" stroke="white"/>
<circle cx="418" cy="478" r="1" fill="white"/>
<circle cx="418" cy="478" r="2.5" stroke="white"/>
<circle cx="610" cy="463" r="1" fill="white"/>
<circle cx="610" cy="463" r="2.5" stroke="white"/>
<circle cx="548" cy="463" r="1" fill="white"/>
<circle cx="548" cy="463" r="2.5" stroke="white"/>
<circle cx="666" cy="237" r="1" fill="white"/>
<circle cx="666" cy="237" r="2.5" stroke="white"/>
<circle cx="609" cy="237" r="1" fill="white"/>
<circle cx="609" cy="237" r="2.5" stroke="white"/>
<circle cx="514" cy="271" r="1" fill="white"/>
<circle cx="514" cy="271" r="2.5" stroke="white"/>
<circle cx="441" cy="266" r="1" fill="white"/>
<circle cx="441" cy="266" r="2.5" stroke="white"/>
<circle cx="546" cy="383" r="1" fill="white"/>
<circle cx="546" cy="383" r="2.5" stroke="white"/>
<circle cx="609" cy="383" r="1" fill="white"/>
<circle cx="609" cy="383" r="2.5" stroke="white"/>
<circle cx="479" cy="155" r="1" fill="white"/>
<circle cx="479" cy="155" r="2.5" stroke="white"/>
<circle cx="609" cy="57" r="1" fill="white"/>
<circle cx="609" cy="57" r="2.5" stroke="white"/>
<circle cx="668" cy="57" r="1" fill="white"/>
<circle cx="668" cy="57" r="2.5" stroke="white"/>
<circle cx="62" cy="366" r="1" fill="white"/>
<circle cx="62" cy="366" r="2.5" stroke="white"/>
<circle cx="202" cy="320" r="1" fill="white"/>
<circle cx="202" cy="320" r="2.5" stroke="white"/>
<circle cx="4" cy="366" r="1" fill="white"/>
<circle cx="4" cy="366" r="2.5" stroke="white"/>
<circle cx="62" cy="219" r="1" fill="white"/>
<circle cx="62" cy="219" r="2.5" stroke="white"/>
<circle cx="202" cy="267" r="1" fill="white"/>
<circle cx="202" cy="267" r="2.5" stroke="white"/>
<circle cx="227" cy="202" r="1" fill="white"/>
<circle cx="227" cy="202" r="2.5" stroke="white"/>
<circle cx="289" cy="202" r="1" fill="white"/>
<circle cx="289" cy="202" r="2.5" stroke="white"/>
<circle cx="4" cy="219" r="1" fill="white"/>
<circle cx="4" cy="219" r="2.5" stroke="white"/>
<circle cx="62" cy="76" r="1" fill="white"/>
<circle cx="62" cy="76" r="2.5" stroke="white"/>
<circle cx="4" cy="76" r="1" fill="white"/>
<circle cx="4" cy="76" r="2.5" stroke="white"/>
<path d="M2 5H62L291.5 203.5" stroke="white"/>
<circle cx="62" cy="5" r="1" fill="white"/>
<circle cx="62" cy="5" r="2.5" stroke="white"/>
<circle cx="4" cy="5" r="1" fill="white"/>
<circle cx="4" cy="5" r="2.5" stroke="white"/>
</svg>
