<svg width="60" height="60" viewBox="0 0 60 60" fill="none" xmlns="http://www.w3.org/2000/svg">
<path d="M31.6481 17.745C31.1981 17.2969 30.5813 17.1563 30 17.2594C29.4187 17.1563 28.8019 17.2969 28.3519 17.745L17.745 28.3519C17.0119 29.085 17.0119 30.2719 17.745 31.003C18.4781 31.7363 19.665 31.7363 20.3963 31.003L28.125 23.2763V43.125C28.125 44.16 28.965 45 30 45C31.035 45 31.875 44.16 31.875 43.125V23.2763L39.6019 31.003C40.335 31.7363 41.5219 31.7363 42.253 31.003C42.9863 30.2699 42.9863 29.0831 42.253 28.3519L31.6481 17.745ZM30 0C13.4325 0 0 13.4306 0 30C0 46.5694 13.4325 60 30 60C46.5694 60 60 46.5675 60 30C60 13.4325 46.5694 0 30 0ZM30 56.25C15.5025 56.25 3.75 44.4976 3.75 30C3.75 15.5025 15.5025 3.75 30 3.75C44.4976 3.75 56.25 15.5025 56.25 30C56.25 44.4976 44.4976 56.25 30 56.25Z" fill="#999999"/>
</svg>
